<svg width="20" height="20" viewBox="0 0 20 20" fill="none" xmlns="http://www.w3.org/2000/svg">
<g clip-path="url(#clip0_660_12912)">
<path d="M10 10.625C9.25832 10.625 8.5333 10.4051 7.91661 9.99301C7.29993 9.58096 6.81928 8.99529 6.53545 8.31006C6.25162 7.62484 6.17736 6.87084 6.32206 6.14341C6.46675 5.41598 6.8239 4.7478 7.34835 4.22335C7.8728 3.6989 8.54098 3.34175 9.26841 3.19706C9.99584 3.05236 10.7498 3.12662 11.4351 3.41045C12.1203 3.69428 12.706 4.17493 13.118 4.79161C13.5301 5.4083 13.75 6.13332 13.75 6.875C13.75 7.86956 13.3549 8.82339 12.6517 9.52665C11.9484 10.2299 10.9946 10.625 10 10.625ZM10 4.375C9.50555 4.375 9.0222 4.52162 8.61108 4.79633C8.19995 5.07103 7.87952 5.46148 7.6903 5.91829C7.50108 6.37511 7.45158 6.87777 7.54804 7.36273C7.6445 7.84768 7.8826 8.29314 8.23223 8.64277C8.58187 8.9924 9.02732 9.2305 9.51228 9.32697C9.99723 9.42343 10.4999 9.37392 10.9567 9.1847C11.4135 8.99548 11.804 8.67505 12.0787 8.26393C12.3534 7.8528 12.5 7.36945 12.5 6.875C12.5 6.21196 12.2366 5.57608 11.7678 5.10723C11.2989 4.63839 10.663 4.375 10 4.375Z" fill="#43C6BC"/>
<path d="M10 19.3752C8.61403 19.3743 7.24551 19.0661 5.99295 18.4727C4.74039 17.8794 3.63497 17.0158 2.75626 15.944L2.43126 15.544L2.75626 15.1502C3.63571 14.0798 4.74146 13.2176 5.99398 12.6256C7.24649 12.0336 8.61464 11.7266 10 11.7266C11.3854 11.7266 12.7535 12.0336 14.006 12.6256C15.2586 13.2176 16.3643 14.0798 17.2438 15.1502L17.5688 15.544L17.2438 15.944C16.3651 17.0158 15.2596 17.8794 14.0071 18.4727C12.7545 19.0661 11.386 19.3743 10 19.3752ZM4.06876 15.5502C4.82891 16.364 5.74822 17.0128 6.76961 17.4564C7.79101 17.9 8.89269 18.1289 10.0063 18.1289C11.1198 18.1289 12.2215 17.9 13.2429 17.4564C14.2643 17.0128 15.1836 16.364 15.9438 15.5502C15.1836 14.7364 14.2643 14.0876 13.2429 13.644C12.2215 13.2004 11.1198 12.9715 10.0063 12.9715C8.89269 12.9715 7.79101 13.2004 6.76961 13.644C5.74822 14.0876 4.82891 14.7364 4.06876 15.5502Z" fill="#43C6BC"/>
<path d="M10 19.375C7.87047 19.3764 5.8039 18.6528 4.14043 17.3232C2.47696 15.9936 1.31572 14.1373 0.847836 12.0598C0.37995 9.98232 0.633298 7.80743 1.56618 5.8931C2.49907 3.97877 4.0559 2.43909 5.98044 1.52747C7.90499 0.615841 10.0826 0.386598 12.1547 0.877468C14.2269 1.36834 16.0703 2.55007 17.3813 4.22816C18.6924 5.90625 19.3931 7.98071 19.3681 10.1101C19.3431 12.2395 18.5939 14.2969 17.2438 15.9438C16.365 17.0156 15.2596 17.8792 14.0071 18.4725C12.7545 19.0659 11.386 19.3741 10 19.375ZM10 1.87501C8.39303 1.87501 6.82214 2.35153 5.48599 3.24432C4.14985 4.1371 3.10844 5.40605 2.49348 6.8907C1.87852 8.37535 1.71762 10.009 2.03112 11.5851C2.34463 13.1612 3.11846 14.6089 4.25476 15.7452C5.39106 16.8815 6.8388 17.6554 8.41489 17.9689C9.99099 18.2824 11.6247 18.1215 13.1093 17.5065C14.594 16.8916 15.8629 15.8502 16.7557 14.514C17.6485 13.1779 18.125 11.607 18.125 10C18.125 7.84512 17.269 5.7785 15.7452 4.25476C14.2215 2.73103 12.1549 1.87501 10 1.87501Z" fill="#43C6BC"/>
<path d="M3.2375 15.5501C3.2375 15.5501 9.53125 22.5813 15.9375 16.2501L16.7625 15.5501C16.7625 15.5501 11.4125 10.0001 5.98125 13.3313L3.2375 15.5501Z" fill="#43C6BC"/>
<path d="M10 10C11.7259 10 13.125 8.60089 13.125 6.875C13.125 5.14911 11.7259 3.75 10 3.75C8.27411 3.75 6.875 5.14911 6.875 6.875C6.875 8.60089 8.27411 10 10 10Z" fill="#43C6BC"/>
</g>
<defs>
<clipPath id="clip0_660_12912">
<rect width="20" height="20" fill="white"/>
</clipPath>
</defs>
</svg>
