<svg width="15" height="15" viewBox="0 0 15 15" fill="none" xmlns="http://www.w3.org/2000/svg">
<g clip-path="url(#clip0_660_12155)">
<path d="M8.50861 7.51876L3.44597 12.5814C2.89457 13.1328 2.89457 14.0351 3.44597 14.5865C3.99736 15.1378 4.94972 15.1378 5.45099 14.5865L11.5663 8.52127C11.8169 8.27066 11.9673 7.86962 11.9673 7.51876C11.9673 7.11774 11.8169 6.76685 11.5663 6.51625L5.50111 0.400965C5.25048 0.15033 4.84949 -4.89688e-05 4.4986 -4.89381e-05C4.09759 -4.89031e-05 3.7467 0.150301 3.49609 0.400965C2.9447 0.952332 2.9447 1.85459 3.49609 2.40598L8.50861 7.51876ZM4.14774 1.15287C4.29809 1.00252 4.59886 1.00252 4.74924 1.15287L10.8645 7.218C10.9648 7.31825 11.0149 7.4185 11.0149 7.51876C11.0149 7.61901 10.9648 7.71927 10.8645 7.81952L4.74924 13.8847C4.69911 13.9849 4.59889 14.035 4.44848 14.035C4.29807 14.035 4.24797 13.9849 4.14771 13.8847C3.99736 13.7343 3.99736 13.4336 4.14771 13.2832L9.61138 7.86965C9.71163 7.76939 9.76176 7.66914 9.76176 7.51879C9.76176 7.36844 9.71163 7.26815 9.61138 7.1679L4.19784 1.75436C3.99733 1.55386 3.99733 1.30322 4.14774 1.15287Z" fill="#4A46FF"/>
</g>
<defs>
<clipPath id="clip0_660_12155">
<rect width="15" height="15" fill="white" transform="translate(15 15) rotate(180)"/>
</clipPath>
</defs>
</svg>
