<svg width="30" height="30" viewBox="0 0 30 30" fill="none" xmlns="http://www.w3.org/2000/svg">
<g opacity="0.3" clip-path="url(#clip0_175_5029)">
<path d="M8.03571 11.7857H4.28571C3.98985 11.7857 3.75 12.0256 3.75 12.3214V20.8928C3.75 21.1887 3.98985 21.4286 4.28571 21.4286H8.03571C8.33158 21.4286 8.57143 21.1887 8.57143 20.8928V12.3214C8.57143 12.0256 8.33158 11.7857 8.03571 11.7857Z" fill="#F7B4CB"/>
<path d="M9.64271 12.3214V14.4643H13.9284V11.7857C13.9284 11.4898 14.1683 11.25 14.4641 11.25C14.76 11.25 14.9998 11.4898 14.9998 11.7857V14.4643H16.0713L16.0713 11.25C16.0815 9.25787 14.5301 7.60652 12.5413 7.49236C10.5524 7.37821 8.82231 8.84122 8.60449 10.8214C9.2283 11.0575 9.64143 11.6544 9.64271 12.3214Z" fill="#F7B4CB"/>
<path d="M6.61026 27.3932C6.65911 27.6855 6.93018 27.8871 7.22419 27.8496C7.51077 27.8037 7.70864 27.5379 7.67044 27.2502L7.01741 22.5H5.93848L6.61026 27.3932Z" fill="#F7B4CB"/>
<path d="M6.96429 6.70823V4.82144H3.75V6.70983C4.78881 6.33592 5.92548 6.33592 6.96429 6.70983V6.70823Z" fill="#F7B4CB"/>
<path d="M23.5713 4.82144H24.6427V6.9643H23.5713V4.82144Z" fill="#F7B4CB"/>
<path d="M13.9282 6.70821V2.79053C12.8927 3.18323 11.7493 3.18323 10.7139 2.79053V6.70981C11.7526 6.33554 12.8894 6.33554 13.9282 6.70981V6.70821ZM11.7853 4.82142C11.7853 4.52555 12.0251 4.28571 12.321 4.28571C12.6169 4.28571 12.8567 4.52555 12.8567 4.82142C12.8567 5.11729 12.6169 5.35713 12.321 5.35713C12.0251 5.35713 11.7853 5.11729 11.7853 4.82142Z" fill="#F7B4CB"/>
<path d="M17.6787 0H19.2859V1.60714H17.6787V0Z" fill="#F7B4CB"/>
<path d="M22.0118 11.7348C21.6808 12.7314 21.166 13.6572 20.4941 14.4643H27.482C27.0869 13.1665 26.5657 11.9105 25.9257 10.7143H22.3509L22.0118 11.7348Z" fill="#F7B4CB"/>
<path d="M17.975 7.04195C18.1562 7.13426 18.3743 7.11447 18.5359 6.99106L20.143 5.7857C20.2769 5.68366 20.356 5.52543 20.3573 5.35713V2.67856H19.2859V4.82142C19.2859 4.99004 19.2065 5.14882 19.0716 5.24999L17.893 6.13392C17.7585 6.23542 17.6792 6.39399 17.6787 6.56249C17.6766 6.76611 17.7919 6.95277 17.975 7.04195Z" fill="#F7B4CB"/>
<path d="M22.5 8.57142V9.64285H25.7143V8.57142C25.7143 8.27555 25.4744 8.03571 25.1786 8.03571H23.0357C22.7398 8.03571 22.5 8.27555 22.5 8.57142Z" fill="#F7B4CB"/>
<path d="M6.96429 3.21429C6.96429 2.32669 6.24474 1.60715 5.35714 1.60715C4.46954 1.60715 3.75 2.32669 3.75 3.21429V3.75H6.96429V3.21429Z" fill="#F7B4CB"/>
<path d="M9.64252 20.8929C9.6397 21.7545 8.95795 22.4605 8.09698 22.4936L8.7318 27.1039C8.79016 27.5262 8.67798 27.9544 8.42005 28.2939C8.16212 28.6333 7.77967 28.8561 7.35716 28.913C7.28608 28.9223 7.21454 28.9275 7.14287 28.9286C6.34171 28.9242 5.66461 28.3337 5.55127 27.5405L4.85805 22.5H4.28537C3.39777 22.5 2.67823 21.7805 2.67823 20.8929V18.75H1.2002L3.37466 28.7341C3.53471 29.4707 4.18517 29.9971 4.93895 30H25.0604C25.8136 29.9986 26.4644 29.4733 26.6247 28.7373L28.7991 18.75H9.64252V20.8929ZM21.2675 27.1029L22.0764 21.21C22.1439 20.6319 22.5185 20.1355 23.0559 19.9121C23.5933 19.6888 24.2095 19.7734 24.6668 20.1333C25.1241 20.4933 25.3511 21.0723 25.2602 21.6471L24.4518 27.54C24.3239 28.4125 23.5168 29.019 22.6431 28.8991C21.7694 28.7791 21.1556 27.9776 21.2675 27.1029ZM16.4531 21.3509C16.4958 20.4642 17.2493 19.78 18.136 19.8228C19.0227 19.8655 19.7069 20.619 19.6641 21.5057L19.3802 27.3986C19.339 28.2549 18.633 28.9281 17.7757 28.9286H17.6991C17.273 28.9086 16.8723 28.72 16.5853 28.4044C16.2983 28.0888 16.1486 27.672 16.1691 27.2459L16.4531 21.3509ZM11.8636 19.8214C12.7485 19.7832 13.4992 20.4648 13.5463 21.3493L13.8302 27.2421C13.8518 27.6685 13.7028 28.0859 13.4161 28.4023C13.1295 28.7187 12.7288 28.9081 12.3023 28.9286H12.2236C11.3655 28.9296 10.6579 28.2562 10.6164 27.3991L10.3325 21.5063C10.3114 21.0796 10.461 20.6621 10.7483 20.346C11.0356 20.0299 11.4369 19.8411 11.8636 19.8214Z" fill="#F7B4CB"/>
<path d="M12.2239 27.8571H12.2534C12.5479 27.8416 12.7744 27.5908 12.7602 27.2962L12.4762 21.4034C12.4684 21.2604 12.4035 21.1265 12.2962 21.0316C12.2007 20.9439 12.0761 20.8945 11.9464 20.8929H11.9196C11.7769 20.8985 11.6424 20.961 11.5459 21.0663C11.4495 21.1716 11.3991 21.3111 11.4059 21.4537L11.6898 27.3466C11.7032 27.632 11.9382 27.8566 12.2239 27.8571Z" fill="#F7B4CB"/>
<path d="M29.464 15.5357H9.64258V17.6786H29.464C29.7599 17.6786 29.9997 17.4387 29.9997 17.1428V16.0714C29.9997 15.7756 29.7599 15.5357 29.464 15.5357Z" fill="#F7B4CB"/>
<path d="M2.67885 12.3214C2.67885 11.4338 3.39839 10.7143 4.286 10.7143H7.54153C7.61763 10.0346 7.83907 9.37923 8.19082 8.79267C8.13403 8.72678 8.0751 8.66089 8.01028 8.59607C6.93761 7.52242 5.32355 7.20118 3.92154 7.7823C2.51952 8.36342 1.60601 9.73232 1.60742 11.25L1.60742 14.4643H2.67885V12.3214Z" fill="#F7B4CB"/>
<path d="M21.8574 1.82143L23.3039 3.75H24.9496L26.8396 1.77268C26.9396 1.668 27.0778 1.60829 27.2226 1.60715H27.2285C27.3706 1.60718 27.5068 1.66364 27.6072 1.76411L28.459 2.6159C28.6697 2.81739 29.0016 2.81739 29.2122 2.6159L29.8444 1.98215C30.0507 1.77345 30.0507 1.43763 29.8444 1.22893L28.773 0.157503C28.6725 0.0562676 28.5357 -0.000467323 28.3931 2.89979e-06L20.3574 1.577e-09V1.60715H21.4289C21.5975 1.60715 21.7562 1.68654 21.8574 1.82143Z" fill="#F7B4CB"/>
<path d="M17.7485 27.8571H17.7758C18.0619 27.8575 18.2978 27.6329 18.3115 27.3471L18.5955 21.4543C18.6024 21.3121 18.5525 21.1729 18.4567 21.0676C18.3609 20.9622 18.2271 20.8994 18.0849 20.8929H18.0576C17.7704 20.8897 17.5329 21.1158 17.5219 21.4029L17.238 27.2957C17.231 27.4379 17.2809 27.5771 17.3767 27.6824C17.4725 27.7877 17.6063 27.8506 17.7485 27.8571Z" fill="#F7B4CB"/>
<path d="M2.67857 15.5357H0.535714C0.239847 15.5357 0 15.7756 0 16.0714V17.1428C0 17.4387 0.239847 17.6786 0.535714 17.6786H2.67857V15.5357Z" fill="#F7B4CB"/>
<path d="M22.7859 27.8523C22.9267 27.8717 23.0695 27.8343 23.1827 27.7484C23.2959 27.6625 23.3704 27.5351 23.3897 27.3943L24.1986 21.5014C24.218 21.3605 24.1805 21.2177 24.0945 21.1045C24.0085 20.9912 23.881 20.9168 23.74 20.8977C23.7152 20.8945 23.6901 20.8928 23.665 20.8929C23.549 20.8923 23.4361 20.9299 23.3436 21C23.2294 21.0858 23.1542 21.2137 23.1347 21.3552L22.3263 27.248C22.3069 27.3888 22.3443 27.5316 22.4302 27.6448C22.5161 27.758 22.6435 27.8325 22.7843 27.8518L22.7859 27.8523Z" fill="#F7B4CB"/>
</g>
<defs>
<clipPath id="clip0_175_5029">
<rect width="30" height="30" fill="white"/>
</clipPath>
</defs>
</svg>
