<svg width="30" height="30" viewBox="0 0 30 30" fill="none" xmlns="http://www.w3.org/2000/svg">
<g opacity="0.3">
<path d="M15.1017 24.1365C16.8184 24.1365 18.2098 22.7451 18.2098 21.0285V18.2113H11.9961V21.0309C11.9977 22.7457 13.3873 24.1353 15.1017 24.1365Z" fill="#D7D6FF"/>
<path d="M8.46582 27.7917H20.7683C21.2832 27.7917 21.7007 27.3744 21.7007 26.8595V25.4124H8.46582V27.7917Z" fill="#D7D6FF"/>
<path d="M21.3006 19.7902C21.3002 19.3209 20.9196 18.9405 20.4504 18.9399H19.4502V20.6405H20.4504C20.9196 20.6401 21.3002 20.2595 21.3006 19.7902Z" fill="#D7D6FF"/>
<path d="M13.2383 12.7464C13.2391 13.3172 13.7014 13.7796 14.272 13.7804H15.9299C16.5005 13.7796 16.9629 13.3172 16.9636 12.7464V10.3325H13.2383V12.7464Z" fill="#D7D6FF"/>
<path d="M20.4805 13.0649L27.6632 13.4856V11.839L20.4805 12.2597V13.0649Z" fill="#D7D6FF"/>
<path d="M5.5096 4.6106C5.11044 4.6106 4.78692 4.93391 4.78613 5.33327C4.78554 5.73243 5.10846 6.05674 5.50763 6.05773C5.90698 6.05891 6.23149 5.73658 6.23326 5.33742C6.23405 5.14505 6.15801 4.96038 6.02233 4.8239C5.88644 4.68762 5.70197 4.61079 5.5096 4.6106Z" fill="#D7D6FF"/>
<path d="M28.711 10.7274C28.5868 10.6101 28.4193 10.5493 28.2486 10.5591L19.8224 11.0563C19.4932 11.0754 19.2362 11.3482 19.2368 11.678V12.0454H18.2074V10.3326H22.3227C22.6659 10.3326 22.9442 10.0545 22.9442 9.71125V5.42753C22.9448 2.93243 20.9221 0.909366 18.4268 0.910156H6.15023C5.01871 0.911934 3.91978 1.28937 3.02607 1.9836C1.78711 2.94368 1.06364 4.42439 1.06838 5.992V28.4133C1.06838 28.7568 1.34687 29.0351 1.69013 29.0351H20.7685C21.9703 29.0351 22.9442 28.061 22.9442 26.8596V24.7907C22.9442 24.4474 22.6659 24.1689 22.3227 24.1689H18.1092C18.7521 23.5541 19.1906 22.7564 19.3654 21.884H20.4509C21.6073 21.884 22.5447 20.9466 22.5447 19.7902C22.5447 18.634 21.6073 17.6966 20.4509 17.6966H19.4507V17.5896C19.4507 17.2463 19.1724 16.9682 18.8292 16.9682H11.3745C11.0312 16.9682 10.7529 17.2463 10.7529 17.5896V21.0309C10.7523 22.2164 11.2374 23.3505 12.095 24.1689H8.46599V10.3326H11.9956V12.7465C11.9968 14.0037 13.0156 15.0222 14.2725 15.0236H15.9304C16.9807 15.0222 17.8942 14.3035 18.1428 13.283H19.2368V13.6497C19.2362 13.9794 19.4932 14.2523 19.8224 14.2715L28.2486 14.7688H28.2846C28.6279 14.7688 28.9063 14.4903 28.9063 14.147V11.1807C28.9065 11.0091 28.8358 10.8451 28.711 10.7274ZM19.4487 18.9399H20.4491C20.9186 18.9399 21.2994 19.3207 21.2994 19.7902C21.2994 20.2601 20.9186 20.6405 20.4491 20.6405H19.4507L19.4487 18.9399ZM5.98373 23.7948H3.54946C3.20619 23.7948 2.92791 23.5164 2.92791 23.1731C2.92791 22.8298 3.20619 22.5515 3.54946 22.5515H5.9863C6.32956 22.5515 6.60785 22.8298 6.60785 23.1731C6.60785 23.5164 6.32956 23.7948 5.9863 23.7948H5.98373ZM5.98373 22.0039H3.54946C3.20619 22.0039 2.92791 21.7256 2.92791 21.3821C2.92791 21.0388 3.20619 20.7606 3.54946 20.7606H5.9863C6.32956 20.7606 6.60785 21.0388 6.60785 21.3821C6.60785 21.7256 6.32956 22.0039 5.9863 22.0039H5.98373ZM5.98373 20.2125H3.54946C3.20619 20.2125 2.92791 19.934 2.92791 19.5907C2.92791 19.2475 3.20619 18.969 3.54946 18.969H5.9863C6.32956 18.969 6.60785 19.2475 6.60785 19.5907C6.60785 19.934 6.32956 20.2125 5.9863 20.2125H5.98373ZM5.50833 7.30048C4.42165 7.29949 3.54176 6.41763 3.54314 5.33134C3.54472 4.24466 4.42659 3.36516 5.51327 3.36674C6.59955 3.36852 7.47905 4.25078 7.47668 5.33746C7.47372 6.42177 6.59442 7.29949 5.50991 7.30048H5.50833Z" fill="#D7D6FF"/>
</g>
</svg>
