<svg width="30" height="30" viewBox="0 0 30 30" fill="none" xmlns="http://www.w3.org/2000/svg">
<g opacity="0.3" clip-path="url(#clip0_175_4986)">
<path d="M0 9.375H8.4375V12.1875H0V9.375Z" fill="#F7B4CB"/>
<path d="M0 25.3125V29.0625C0 29.3111 0.0987721 29.5496 0.274587 29.7254C0.450403 29.9012 0.68886 30 0.9375 30H8.4375V25.3125H0Z" fill="#F7B4CB"/>
<path d="M19.8982 17.8125H22.1938L21.9095 17.0801C21.8671 16.9725 21.7867 16.8843 21.6834 16.8324C21.5801 16.7804 21.4614 16.7684 21.3498 16.7985C20.0562 17.1452 19.8377 15.4904 20.6767 15.0721C20.7804 15.021 20.8611 14.9328 20.9031 14.8251C20.9451 14.7174 20.9452 14.5979 20.9035 14.4901L20.1247 12.4849C20.0902 12.3971 20.03 12.3217 19.9519 12.2686C19.8739 12.2155 19.7816 12.1873 19.6872 12.1875H17.7324L19.8982 17.8125Z" fill="#F7B4CB"/>
<path d="M10.1372 25.5245L15.0195 12.3441V8.4375L12.1973 3.28125L9.375 8.4375V25.3879C9.375 25.4922 9.41645 25.5922 9.49022 25.666C9.564 25.7398 9.66406 25.7812 9.7684 25.7812C9.84875 25.7813 9.92717 25.7567 9.99311 25.7107C10.0591 25.6648 10.1094 25.5998 10.1372 25.5245Z" fill="#F7B4CB"/>
<path d="M12.1875 2.34375H2.8125V0.9375C2.8125 0.68886 2.91127 0.450403 3.08709 0.274587C3.2629 0.0987721 3.50136 0 3.75 0L11.25 0C11.4986 0 11.7371 0.0987721 11.9129 0.274587C12.0887 0.450403 12.1875 0.68886 12.1875 0.9375V2.34375Z" fill="#F7B4CB"/>
<path d="M24.375 0.9375V0.46875C24.375 0.34443 24.3256 0.225201 24.2377 0.137294C24.1498 0.049386 24.0306 0 23.9062 0L18.2812 0C18.1569 0 18.0377 0.049386 17.9498 0.137294C17.8619 0.225201 17.8125 0.34443 17.8125 0.46875V0.9375H24.375Z" fill="#F7B4CB"/>
<path d="M23.9062 1.875H18.2812C18.0224 1.875 17.8125 2.08487 17.8125 2.34375C17.8125 2.60263 18.0224 2.8125 18.2812 2.8125H23.9062C24.1651 2.8125 24.375 2.60263 24.375 2.34375C24.375 2.08487 24.1651 1.875 23.9062 1.875Z" fill="#F7B4CB"/>
<path d="M8.4375 8.4375H0L2.8125 3.28125H11.25L8.4375 8.4375Z" fill="#F7B4CB"/>
<path d="M18.8717 20.5815C18.5659 20.5035 18.2952 20.3248 18.1032 20.0743C17.9112 19.8238 17.809 19.516 17.8132 19.2004C17.8173 18.8849 17.9275 18.5798 18.126 18.3344C18.3245 18.0891 18.5998 17.9176 18.9075 17.8476L16.8439 12.4877C16.6957 12.0916 16.1141 12.0999 15.969 12.4877L14.3365 16.7278C14.3124 16.7928 14.3029 16.8623 14.3086 16.9314C14.3143 17.0006 14.3352 17.0676 14.3696 17.1278C14.4041 17.1879 14.4514 17.2398 14.5081 17.2797C14.5648 17.3197 14.6296 17.3466 14.6979 17.3588C16.0254 17.5771 15.2059 19.8235 14.0348 19.0761C13.976 19.0395 13.91 19.0162 13.8412 19.008C13.7725 18.9997 13.7027 19.0066 13.637 19.0282C13.5712 19.0498 13.5109 19.0856 13.4605 19.1331C13.4101 19.1805 13.3707 19.2384 13.3451 19.3028L11.8303 23.2367C11.7981 23.3202 11.7905 23.4112 11.8085 23.4989C11.8264 23.5866 11.8691 23.6674 11.9314 23.7316C12.4922 24.3092 12.024 25.2668 11.3263 25.3091C11.2366 25.3145 11.1503 25.3456 11.0777 25.3987C11.0052 25.4518 10.9494 25.5246 10.9171 25.6085L10.3438 27.0974C10.3108 27.1831 10.3037 27.2766 10.3234 27.3663C10.3431 27.456 10.3887 27.5379 10.4545 27.6019C12.9259 30.0043 16.5655 30.6258 19.6665 29.3619L18.8717 20.5815ZM15.9377 20.1562C16.2158 20.1562 16.4877 20.2387 16.719 20.3932C16.9502 20.5477 17.1305 20.7674 17.2369 21.0243C17.3433 21.2813 17.3712 21.564 17.3169 21.8368C17.2627 22.1096 17.1287 22.3602 16.9321 22.5568C16.7354 22.7535 16.4848 22.8874 16.212 22.9417C15.9393 22.9959 15.6565 22.9681 15.3996 22.8617C15.1426 22.7552 14.923 22.575 14.7684 22.3437C14.6139 22.1125 14.5315 21.8406 14.5315 21.5625C14.5319 21.1896 14.6802 20.8322 14.9438 20.5686C15.2074 20.3049 15.5649 20.1566 15.9377 20.1562ZM13.594 28.125C13.3158 28.125 13.0439 28.0425 12.8127 27.888C12.5814 27.7334 12.4012 27.5138 12.2947 27.2569C12.1883 26.9999 12.1605 26.7171 12.2147 26.4444C12.269 26.1716 12.4029 25.921 12.5996 25.7243C12.7963 25.5277 13.0468 25.3937 13.3196 25.3395C13.5924 25.2852 13.8751 25.3131 14.1321 25.4195C14.3891 25.5259 14.6087 25.7062 14.7632 25.9374C14.9177 26.1687 15.0002 26.4406 15.0002 26.7187C14.9998 27.0915 14.8515 27.449 14.5879 27.7126C14.3242 27.9762 13.9668 28.1245 13.594 28.125ZM17.1096 26.25C16.8778 26.25 16.6512 26.1812 16.4585 26.0525C16.2658 25.9237 16.1156 25.7407 16.0269 25.5265C15.9382 25.3124 15.915 25.0768 15.9602 24.8495C16.0054 24.6221 16.117 24.4133 16.2809 24.2494C16.4448 24.0856 16.6536 23.9739 16.881 23.9287C17.1083 23.8835 17.3439 23.9067 17.558 23.9954C17.7722 24.0841 17.9552 24.2343 18.084 24.427C18.2127 24.6197 18.2815 24.8463 18.2815 25.0781C18.2811 25.3888 18.1575 25.6866 17.9378 25.9063C17.7181 26.126 17.4203 26.2496 17.1096 26.25Z" fill="#F7B4CB"/>
<path d="M0 13.125V24.375H8.4375V13.125H0ZM1.40625 19.6875C1.40625 18.3111 3.75 15 4.21875 15C4.6875 15 7.03125 18.2451 7.03125 19.6875C7.03125 23.0518 1.40625 23.5488 1.40625 19.6875Z" fill="#F7B4CB"/>
<path d="M24.226 7.62305C23.3305 6.93791 25.3124 6.12334 25.3124 5.08787C25.312 4.73317 25.1709 4.39311 24.9201 4.1423C24.6692 3.89149 24.3292 3.7504 23.9745 3.75H18.2127C17.858 3.7504 17.518 3.89149 17.2672 4.1423C17.0163 4.39311 16.8753 4.73317 16.8749 5.08787C16.8749 6.16898 18.919 6.89027 17.9612 7.62305C16.9494 8.39707 16.2644 9.4674 16.0285 10.6884C16.015 10.7564 16.0167 10.8266 16.0336 10.8939C16.0504 10.9612 16.0819 11.0239 16.1258 11.0776C16.1698 11.1313 16.225 11.1746 16.2877 11.2044C16.3503 11.2342 16.4188 11.2498 16.4881 11.25H19.6874C19.9704 11.251 20.2467 11.3369 20.4805 11.4966C20.7143 11.6563 20.8948 11.8824 20.9987 12.1457L23.0835 17.5137C23.1178 17.6017 23.1778 17.6774 23.2558 17.7307C23.3338 17.784 23.426 17.8125 23.5205 17.8125H25.7811C25.9054 17.8125 26.0247 17.7631 26.1126 17.6752C26.2005 17.5873 26.2499 17.4681 26.2499 17.3438V11.7188C26.248 10.9268 26.0645 10.1458 25.7137 9.4358C25.3629 8.7258 24.8539 8.10566 24.226 7.62305Z" fill="#F7B4CB"/>
<path d="M29.5312 18.75H19.2188C19.0944 18.75 18.9752 18.7994 18.8873 18.8873C18.7994 18.9752 18.75 19.0944 18.75 19.2188C18.75 19.3431 18.7994 19.4623 18.8873 19.5502C18.9752 19.6381 19.0944 19.6875 19.2188 19.6875H19.7319L20.6269 29.5737C20.6375 29.6902 20.6913 29.7985 20.7777 29.8774C20.864 29.9563 20.9768 30 21.0938 30H27.6562C27.7732 30 27.886 29.9563 27.9723 29.8774C28.0587 29.7985 28.1125 29.6902 28.1231 29.5737L29.0181 19.6875H29.5312C29.6556 19.6875 29.7748 19.6381 29.8627 19.5502C29.9506 19.4623 30 19.3431 30 19.2188C30 19.0944 29.9506 18.9752 29.8627 18.8873C29.7748 18.7994 29.6556 18.75 29.5312 18.75Z" fill="#F7B4CB"/>
</g>
<defs>
<clipPath id="clip0_175_4986">
<rect width="30" height="30" fill="white"/>
</clipPath>
</defs>
</svg>
