<svg width="204" height="180" viewBox="0 0 204 180" fill="none" xmlns="http://www.w3.org/2000/svg">
<path d="M188.632 17.6821C178.596 6.27951 164.674 0 149.429 0C127.989 0 114.416 12.8217 106.804 23.578C104.829 26.3692 103.15 29.1679 101.739 31.8015C100.329 29.1679 98.6492 26.3692 96.674 23.578C89.0627 12.8217 75.4888 0 54.0489 0C38.8047 0 24.882 6.27991 14.8456 17.6825C5.27255 28.5599 0 43.1277 0 58.7023C0 75.6558 6.61026 91.4242 20.8029 108.326C33.4873 123.431 51.7355 139.002 72.8667 157.032C80.7407 163.751 88.8834 170.699 97.5523 178.294L97.8126 178.522C98.9365 179.508 100.338 180 101.739 180C103.14 180 104.542 179.507 105.666 178.522L105.926 178.294C114.595 170.699 122.738 163.752 130.613 157.032C151.743 139.003 169.991 123.432 182.675 108.326C196.868 91.4238 203.478 75.6558 203.478 58.7023C203.478 43.1277 198.206 28.5598 188.632 17.6821Z" fill="url(#paint0_linear_660_14645)"/>
<path d="M83.7773 69.178C86.824 69.178 89.2939 66.7063 89.2939 63.6574C89.2939 60.6084 86.824 58.1367 83.7773 58.1367C80.7306 58.1367 78.2607 60.6084 78.2607 63.6574C78.2607 66.7063 80.7306 69.178 83.7773 69.178Z" fill="url(#paint1_linear_660_14645)"/>
<path d="M118.23 69.178C121.277 69.178 123.747 66.7063 123.747 63.6574C123.747 60.6084 121.277 58.1367 118.23 58.1367C115.184 58.1367 112.714 60.6084 112.714 63.6574C112.714 66.7063 115.184 69.178 118.23 69.178Z" fill="url(#paint2_linear_660_14645)"/>
<path d="M121.449 117.915C119.6 117.915 118.101 116.414 118.101 114.564C118.101 110.621 111.495 106.23 102.014 106.23C92.5335 106.23 85.9313 110.621 85.9313 114.564C85.9313 116.414 84.4319 117.915 82.5825 117.915C80.733 117.915 79.2336 116.414 79.2336 114.564C79.2336 106.131 89.2412 99.5234 102.018 99.5234C114.794 99.5234 124.802 106.131 124.802 114.564C124.802 116.414 123.302 117.915 121.453 117.915H121.449Z" fill="url(#paint3_linear_660_14645)"/>
<defs>
<linearGradient id="paint0_linear_660_14645" x1="0" y1="89.9981" x2="203.476" y2="89.9981" gradientUnits="userSpaceOnUse">
<stop stop-color="#E0DFFF"/>
<stop offset="1" stop-color="white"/>
</linearGradient>
<linearGradient id="paint1_linear_660_14645" x1="78.2607" y1="63.6574" x2="89.2939" y2="63.6574" gradientUnits="userSpaceOnUse">
<stop stop-color="#E0DFFF"/>
<stop offset="1" stop-color="#C9C8FF"/>
</linearGradient>
<linearGradient id="paint2_linear_660_14645" x1="112.714" y1="63.6574" x2="123.747" y2="63.6574" gradientUnits="userSpaceOnUse">
<stop stop-color="#E0DFFF"/>
<stop offset="1" stop-color="#C9C8FF"/>
</linearGradient>
<linearGradient id="paint3_linear_660_14645" x1="79.2336" y1="108.717" x2="124.798" y2="108.717" gradientUnits="userSpaceOnUse">
<stop stop-color="#C9C8FF"/>
<stop offset="1" stop-color="#D7D6FF"/>
</linearGradient>
</defs>
</svg>
