<svg width="248" height="222" viewBox="0 0 248 222" fill="none" xmlns="http://www.w3.org/2000/svg">
<g clip-path="url(#clip0_660_14742)">
<mask id="mask0_660_14742" style="mask-type:luminance" maskUnits="userSpaceOnUse" x="0" y="0" width="249" height="214">
<path d="M124.002 213.818C192.486 213.818 248.003 165.953 248.003 106.909C248.003 47.8647 192.486 0 124.002 0C55.5174 0 0 47.8647 0 106.909C0 165.953 55.5174 213.818 124.002 213.818Z" fill="white"/>
</mask>
<g mask="url(#mask0_660_14742)">
<path d="M248 106.909C248 165.954 192.483 213.817 123.998 213.817C55.5135 213.817 0 165.954 0 106.909C0 47.8626 55.5167 118.794 124.002 118.794C192.486 118.794 248.003 47.8657 248.003 106.909H248Z" fill="url(#paint0_linear_660_14742)"/>
<path d="M169.688 214.058H53.1222C47.742 214.058 43.5131 209.456 43.9591 204.091L54.7701 74.3755C55.1687 69.6054 59.1509 65.9399 63.9333 65.9399H156.16L169.688 214.061V214.058Z" fill="url(#paint1_linear_660_14742)"/>
<path d="M54.6216 76.1447L65.6003 88.3628L87.6273 65.9365H63.9334C59.151 65.9365 55.1688 69.6051 54.7702 74.3721L54.6216 76.1447Z" fill="url(#paint2_linear_660_14742)"/>
<path d="M87.6274 65.9365V222H65.6003V88.3628L87.6274 65.9365Z" fill="url(#paint3_linear_660_14742)"/>
<path d="M92.432 81.1809C90.8315 81.1809 89.5347 79.8831 89.5347 78.2815V53.9971C89.5347 40.4242 100.57 29.3804 114.133 29.3804C115.734 29.3804 117.03 30.6782 117.03 32.2798C117.03 33.8815 115.734 35.1792 114.133 35.1792C103.768 35.1792 95.3324 43.618 95.3324 53.9939V78.2783C95.3324 79.88 94.0356 81.1777 92.4351 81.1777L92.432 81.1809Z" fill="url(#paint4_linear_660_14742)"/>
<path d="M191.148 214.058H74.6621L76.5947 65.9365H179.303C184.057 65.9365 188.027 69.564 188.46 74.3025L200.305 204.017C200.799 209.408 196.557 214.058 191.148 214.058Z" fill="url(#paint5_linear_660_14742)"/>
<path d="M159.712 82.3548C161.96 80.105 161.96 76.4575 159.712 74.2077C157.464 71.9579 153.819 71.9579 151.571 74.2077C149.322 76.4575 149.322 80.105 151.571 82.3548C153.819 84.6046 157.464 84.6046 159.712 82.3548Z" fill="#4A46FF"/>
<path d="M114.444 83.6023C117.382 82.3847 118.776 79.0147 117.56 76.0753C116.343 73.1358 112.976 71.7399 110.038 72.9575C107.101 74.1751 105.706 77.545 106.923 80.4845C108.14 83.4239 111.507 84.8198 114.444 83.6023Z" fill="#4A46FF"/>
<path d="M155.641 81.1809C154.04 81.1809 152.744 79.8831 152.744 78.2815V53.9971C152.744 43.6212 144.308 35.1824 133.943 35.1824C123.578 35.1824 115.142 43.6212 115.142 53.9971V78.2815C115.142 79.8831 113.845 81.1809 112.245 81.1809C110.644 81.1809 109.347 79.8831 109.347 78.2815V53.9971C109.347 40.4242 120.383 29.3804 133.946 29.3804C147.509 29.3804 158.544 40.421 158.544 53.9971V78.2815C158.544 79.8831 157.248 81.1809 155.647 81.1809H155.641Z" fill="url(#paint6_linear_660_14742)"/>
<path d="M119.067 131.975C121.792 131.975 124.002 129.764 124.002 127.037C124.002 124.31 121.792 122.099 119.067 122.099C116.342 122.099 114.133 124.31 114.133 127.037C114.133 129.764 116.342 131.975 119.067 131.975Z" fill="url(#paint7_linear_660_14742)"/>
<path d="M149.884 131.975C152.609 131.975 154.818 129.764 154.818 127.037C154.818 124.31 152.609 122.099 149.884 122.099C147.159 122.099 144.95 124.31 144.95 127.037C144.95 129.764 147.159 131.975 149.884 131.975Z" fill="url(#paint8_linear_660_14742)"/>
<path d="M152.763 175.568C151.108 175.568 149.767 174.226 149.767 172.57C149.767 169.044 143.859 165.116 135.379 165.116C126.899 165.116 120.994 169.044 120.994 172.57C120.994 174.226 119.653 175.568 117.998 175.568C116.344 175.568 115.003 174.226 115.003 172.57C115.003 165.027 123.954 159.118 135.382 159.118C146.81 159.118 155.761 165.027 155.761 172.57C155.761 174.226 154.42 175.568 152.766 175.568H152.763Z" fill="url(#paint9_linear_660_14742)"/>
<path d="M202.817 40.6997C187.894 40.6997 175.796 52.8071 175.796 67.7411C175.796 72.9828 177.311 77.8606 179.892 82.0072L172.693 94.7824L190.975 92.0539L190.899 91.9874C194.495 93.76 198.531 94.7856 202.811 94.7856C217.734 94.7856 229.832 82.6782 229.832 67.7442C229.832 52.8102 217.734 40.7029 202.811 40.7029L202.817 40.6997Z" fill="url(#paint10_linear_660_14742)"/>
<path d="M203.297 50.8C205.651 50.8 207.678 51.3761 209.38 52.5315C211.082 53.6868 212.397 55.4531 213.324 57.8271C214.251 60.2042 214.716 63.512 214.716 67.7503C214.716 71.9887 214.245 75.3693 213.302 77.7496C212.359 80.1331 211.091 81.8835 209.5 83.0009C207.909 84.1182 205.897 84.6785 203.475 84.6785C201.052 84.6785 199.012 84.1151 197.361 82.9914C195.709 81.8645 194.416 80.1553 193.483 77.8604C192.546 75.5655 192.082 72.2958 192.082 68.0574C192.082 62.1351 192.996 57.8461 194.821 55.184C196.851 52.2593 199.679 50.7969 203.301 50.7969L203.297 50.8ZM203.44 56.6337C202.406 56.6337 201.485 56.9661 200.685 57.6308C199.885 58.2955 199.271 59.4414 198.847 61.062C198.426 62.6858 198.215 65.0598 198.215 68.1903C198.215 72.2704 198.698 75.0876 199.67 76.6449C200.641 78.2023 201.896 78.9809 203.443 78.9809C204.99 78.9809 206.113 78.2434 206.986 76.7652C208.051 74.98 208.583 71.9982 208.583 67.8168C208.583 63.6354 208.105 60.6537 207.15 59.0457C206.195 57.4377 204.958 56.6337 203.443 56.6337H203.44Z" fill="#030075"/>
</g>
</g>
<defs>
<linearGradient id="paint0_linear_660_14742" x1="0" y1="148.624" x2="248" y2="148.624" gradientUnits="userSpaceOnUse">
<stop stop-color="#E0DFFF"/>
<stop offset="1" stop-color="white"/>
</linearGradient>
<linearGradient id="paint1_linear_660_14742" x1="43.9243" y1="139.996" x2="169.688" y2="139.996" gradientUnits="userSpaceOnUse">
<stop stop-color="#E0DFFF"/>
<stop offset="1" stop-color="#C9C8FF"/>
</linearGradient>
<linearGradient id="paint2_linear_660_14742" x1="54.6216" y1="77.1481" x2="87.6273" y2="77.1481" gradientUnits="userSpaceOnUse">
<stop stop-color="#EEEEFF"/>
<stop offset="0.04" stop-color="#EEEEFF"/>
<stop offset="0.26" stop-color="#D9D9FF"/>
<stop offset="0.49" stop-color="#A6A5FD"/>
<stop offset="0.73" stop-color="#8482FF"/>
<stop offset="0.99" stop-color="#625FFF"/>
</linearGradient>
<linearGradient id="paint3_linear_660_14742" x1="65.6003" y1="143.968" x2="87.6274" y2="143.968" gradientUnits="userSpaceOnUse">
<stop stop-color="#E0DFFF"/>
<stop offset="1" stop-color="#C9C8FF"/>
</linearGradient>
<linearGradient id="paint4_linear_660_14742" x1="89.5347" y1="55.2791" x2="117.03" y2="55.2791" gradientUnits="userSpaceOnUse">
<stop stop-color="#E0DFFF"/>
<stop offset="1" stop-color="#C9C8FF"/>
</linearGradient>
<linearGradient id="paint5_linear_660_14742" x1="74.6621" y1="139.996" x2="200.343" y2="139.996" gradientUnits="userSpaceOnUse">
<stop stop-color="#E0DFFF"/>
<stop offset="1" stop-color="white"/>
</linearGradient>
<linearGradient id="paint6_linear_660_14742" x1="109.344" y1="55.2791" x2="158.538" y2="55.2791" gradientUnits="userSpaceOnUse">
<stop stop-color="#E0DFFF"/>
<stop offset="1" stop-color="#C9C8FF"/>
</linearGradient>
<linearGradient id="paint7_linear_660_14742" x1="114.133" y1="127.037" x2="124.002" y2="127.037" gradientUnits="userSpaceOnUse">
<stop stop-color="#E0DFFF"/>
<stop offset="1" stop-color="#C9C8FF"/>
</linearGradient>
<linearGradient id="paint8_linear_660_14742" x1="144.95" y1="127.037" x2="154.818" y2="127.037" gradientUnits="userSpaceOnUse">
<stop stop-color="#E0DFFF"/>
<stop offset="1" stop-color="#C9C8FF"/>
</linearGradient>
<linearGradient id="paint9_linear_660_14742" x1="115.003" y1="167.341" x2="155.758" y2="167.341" gradientUnits="userSpaceOnUse">
<stop stop-color="#C9C8FF"/>
<stop offset="1" stop-color="#D7D6FF"/>
</linearGradient>
<linearGradient id="paint10_linear_660_14742" x1="172.696" y1="67.7411" x2="229.838" y2="67.7411" gradientUnits="userSpaceOnUse">
<stop stop-color="#C9C8FF"/>
<stop offset="1" stop-color="#E0DFFF"/>
</linearGradient>
<clipPath id="clip0_660_14742">
<rect width="248" height="222" fill="white"/>
</clipPath>
</defs>
</svg>
