<svg width="30" height="30" viewBox="0 0 30 30" fill="none" xmlns="http://www.w3.org/2000/svg">
<g opacity="0.3" clip-path="url(#clip0_175_5058)">
<path d="M7.08984 26.8948C7.08984 27.8655 6.30295 28.6526 5.33203 28.6526C4.36111 28.6526 3.57422 27.8655 3.57422 26.8948C3.57422 25.9239 4.36111 25.137 5.33203 25.137C6.30295 25.137 7.08984 25.9239 7.08984 26.8948Z" fill="#43C6BC"/>
<path d="M12.3633 26.8948C12.3633 27.8655 11.5764 28.6526 10.6055 28.6526C9.63455 28.6526 8.84766 27.8655 8.84766 26.8948C8.84766 25.9239 9.63455 25.137 10.6055 25.137C11.5764 25.137 12.3633 25.9239 12.3633 26.8948Z" fill="#43C6BC"/>
<path d="M24.668 26.8948C24.668 27.8655 23.8811 28.6526 22.9102 28.6526C21.9392 28.6526 21.1523 27.8655 21.1523 26.8948C21.1523 25.9239 21.9392 25.137 22.9102 25.137C23.8811 25.137 24.668 25.9239 24.668 26.8948Z" fill="#43C6BC"/>
<path d="M9.72656 16.3479C10.2116 16.3479 10.6055 15.9538 10.6055 15.469V14.5901H8.84766V15.469C8.84766 15.9538 9.24156 16.3479 9.72656 16.3479Z" fill="#43C6BC"/>
<path d="M12.3633 15.469C12.3633 15.9538 12.7572 16.3479 13.2422 16.3479C13.7272 16.3479 14.1211 15.9538 14.1211 15.469V14.5901H12.3633V15.469Z" fill="#43C6BC"/>
<path d="M11.4844 17.4197C11.0168 17.8415 10.4043 18.1056 9.72656 18.1056C9.04884 18.1056 8.43636 17.8415 7.96875 17.4197C7.50114 17.8415 6.88866 18.1056 6.21094 18.1056C5.90126 18.1056 5.60829 18.0422 5.33203 17.9436V19.8634H14.1211V17.9436C13.8448 18.0422 13.5519 18.1056 13.2422 18.1056C12.5645 18.1056 11.952 17.8415 11.4844 17.4197Z" fill="#43C6BC"/>
<path d="M22.9102 14.5901V18.1057H27.9382L26.7666 14.5901H22.9102Z" fill="#43C6BC"/>
<path d="M6.21094 16.3479C6.69594 16.3479 7.08984 15.9538 7.08984 15.469V14.5901H5.33203V15.469C5.33203 15.9538 5.72594 16.3479 6.21094 16.3479Z" fill="#43C6BC"/>
<path d="M19.3945 26.8948C19.3945 25.5991 20.1066 24.4778 21.1523 23.868V19.8635H19.3945V26.8948Z" fill="#43C6BC"/>
<path d="M29.485 19.8635H22.9102V23.3792C24.8518 23.3792 26.4258 24.9529 26.4258 26.8948H29.1211C29.6066 26.8948 30 26.5011 30 26.0159V20.7424C30 20.509 29.9073 20.2858 29.7425 20.121L29.485 19.8635Z" fill="#43C6BC"/>
<path d="M29.1211 9.31665H0.878906C0.393448 9.31665 0 9.70987 0 10.1956V26.0159C0 26.5016 0.393219 26.8948 0.878906 26.8948H1.81641C1.81641 24.9557 3.39317 23.3792 5.33203 23.3792C6.38718 23.3792 7.32399 23.8557 7.96875 24.5936C8.61351 23.8557 9.55032 23.3792 10.6055 23.3792C12.5443 23.3792 14.1211 24.9557 14.1211 26.8948H17.6367C17.6367 26.5267 17.6367 13.2617 17.6367 13.7112C17.6367 13.2255 18.0302 12.8323 18.5156 12.8323H29.1211C29.6066 12.8323 30 12.4386 30 11.9534V10.1956C30 9.70987 29.6066 9.31665 29.1211 9.31665ZM15.8789 20.7424C15.8789 21.2281 15.4857 21.6213 15 21.6213H4.45335C3.96767 21.6213 3.57422 21.238 3.57422 20.7525C3.57422 18.2506 3.57422 13.5304 3.57422 13.7112C3.57422 13.2253 3.96744 12.8323 4.45312 12.8323H15C15.4857 12.8323 15.8789 13.2253 15.8789 13.7112C15.8789 14.0401 15.8789 21.1991 15.8789 20.7424Z" fill="#43C6BC"/>
<path d="M19.3945 14.5901H21.1523V18.1057H19.3945V14.5901Z" fill="#43C6BC"/>
<path d="M22.4247 3.07157C22.8589 2.85436 23.0349 2.32656 22.8177 1.89214C22.6014 1.45704 22.0727 1.28286 21.6383 1.49915C20.1757 2.2595 20.3996 2.06998 20.1547 2.29337C19.6949 1.92624 19.1249 1.71888 18.5143 1.71888C17.94 1.71888 17.3941 1.90084 16.9341 2.24485C15.3797 3.40963 13.4441 4.05073 11.483 4.05073C9.52174 4.05073 7.58631 3.40963 6.03449 2.24393C5.57696 1.90153 5.03199 1.71956 4.45933 1.71956C3.84776 1.71956 3.27647 1.92716 2.8155 2.29406C2.57243 2.07181 2.79925 2.26247 1.33097 1.49892C0.895639 1.28286 0.367838 1.45704 0.151544 1.89214C-0.0654357 2.32633 0.110346 2.85436 0.544763 3.07134L1.83978 3.71862C1.85671 3.72709 1.87548 3.72388 1.89265 3.73098C1.81437 4.05301 1.79446 4.3897 1.84321 4.72799C1.94277 5.42585 2.30761 6.042 2.87158 6.46429C3.42112 6.87627 4.00981 7.23173 4.6136 7.55857H18.3552C18.9592 7.2315 19.5481 6.87581 20.0977 6.4636C20.6616 6.042 21.0265 5.42585 21.126 4.72799C21.1748 4.38993 21.1553 4.05324 21.0771 3.73121C21.0942 3.72388 21.1125 3.72709 21.1295 3.71862L22.4247 3.07157Z" fill="#43C6BC"/>
</g>
<defs>
<clipPath id="clip0_175_5058">
<rect width="30" height="30" fill="white"/>
</clipPath>
</defs>
</svg>
