<svg width="20" height="20" viewBox="0 0 20 20" fill="none" xmlns="http://www.w3.org/2000/svg">
<path d="M18.5408 2.7357C17.5543 1.61641 16.1859 1 14.6875 1C12.5802 1 11.246 2.25859 10.4979 3.31445C10.3038 3.58844 10.1386 3.86316 10 4.12168C9.86137 3.86316 9.69629 3.58844 9.50215 3.31445C8.75402 2.25859 7.41984 1 5.3125 1C3.81414 1 2.44566 1.61645 1.45918 2.73574C0.518242 3.80348 0 5.23348 0 6.76231C0 8.42649 0.649727 9.97434 2.04473 11.6334C3.29148 13.1162 5.08512 14.6446 7.16211 16.4145C7.93605 17.0741 8.73641 17.7561 9.58848 18.5016L9.61406 18.524C9.72453 18.6207 9.86227 18.6691 10 18.6691C10.1377 18.6691 10.2755 18.6207 10.3859 18.524L10.4115 18.5016C11.2636 17.7561 12.0639 17.0741 12.838 16.4145C14.9149 14.6447 16.7085 13.1163 17.9553 11.6334C19.3503 9.9743 20 8.42649 20 6.76231C20 5.23348 19.4818 3.80348 18.5408 2.7357Z" fill="#43C6BC"/>
</svg>
