<svg width="30" height="30" viewBox="0 0 30 30" fill="none" xmlns="http://www.w3.org/2000/svg">
<g opacity="0.3">
<path d="M12.6897 14.3945L12.7142 14.1486C12.3417 13.8271 12.0372 13.4296 11.8262 12.9786L11.7273 13.9736L10.9383 14.2371C10.8078 10.5023 10.4868 7.68099 9.97837 5.86711C9.38741 3.75925 8.64546 2.15536 8.016 1.03144C8.60596 1.09343 9.18592 1.25892 9.73238 1.5329C10.7493 2.04187 11.5573 2.88781 12.0327 3.92424C12.1922 3.55627 12.3832 3.20479 12.6052 2.87581C12.0222 1.92138 11.1868 1.14243 10.1804 0.637962C8.74695 -0.07949 7.12206 -0.195982 5.60216 0.310984C4.08076 0.81845 2.84734 1.88938 2.13089 3.32628C1.02546 5.54163 1.40644 8.25495 3.07883 10.0793L8.36148 15.8389C8.45797 15.9439 8.59246 16.0009 8.72995 16.0009C8.78295 16.0009 8.83644 15.9924 8.88794 15.9749L12.3502 14.8185C12.5372 14.757 12.6702 14.5905 12.6897 14.3945ZM5.91814 1.25942C6.23062 1.15543 6.5486 1.08693 6.86858 1.04543C7.51353 2.11186 8.35948 3.79675 9.01543 6.1366C9.4574 7.71349 9.75338 10.1133 9.89937 13.2716C8.76845 11.4387 7.36254 9.1149 6.4441 7.27802C5.34018 5.07017 4.85671 3.17929 4.64222 1.89938C5.0302 1.6299 5.45767 1.41291 5.91814 1.25942ZM8.87944 14.924L3.81578 9.40338C2.42087 7.88248 2.10289 5.61963 3.02483 3.77225C3.22582 3.36928 3.4798 3.0043 3.77078 2.67633C4.04076 3.98874 4.55523 5.73712 5.54916 7.72499C6.64359 9.91384 8.40097 12.7557 9.59689 14.684L8.87944 14.924Z" fill="#C9C8FF"/>
<path d="M11.3692 15.147L10.4248 15.4625L11.0343 16.6724L11.9072 16.2354L11.3692 15.147Z" fill="#C9C8FF"/>
<path d="M11.7321 30H21.26C22.1469 30 22.9638 29.6285 23.5438 29.0001H9.44824C10.0282 29.6285 10.8451 30 11.7321 30Z" fill="#C9C8FF"/>
<path d="M12.4961 11.5012C12.4961 12.8796 13.6175 14.0011 14.9959 14.0011H15.4959V19.0007H17.4958V14.192L17.7722 14.0541C18.2187 13.8311 18.4957 13.3821 18.4957 12.8831V8.05595C18.4957 8.02595 18.4952 7.99596 18.4957 7.96646V1.50189C18.4957 1.22591 18.2717 1.00192 17.9957 1.00192C14.9634 1.00192 12.4961 3.46926 12.4961 6.50156V11.5012ZM13.496 8.05445H14.496V11.5012C14.496 11.7772 14.7199 12.0012 14.9959 12.0012H15.5214V13.0011H14.9959C14.169 13.0011 13.496 12.3282 13.496 11.5012V8.05445Z" fill="#C9C8FF"/>
<path d="M13.3679 19.0007L12.5754 17.0189L10.79 17.9128L11.2255 19.0007H13.3679Z" fill="#C9C8FF"/>
<path d="M9.94413 20.0007L9.05469 28.0001H23.9367L23.0473 20.0007H9.94413ZM21.2619 22.034L22.2558 21.9235L22.3663 22.917L21.3724 23.0275L21.2619 22.034ZM21.4824 24.0219L22.4763 23.9114L22.5868 24.9048L21.5929 25.0153L21.4824 24.0219ZM21.8138 27.0032L21.7033 26.0098L22.6973 25.8993L22.8078 26.8927L21.8138 27.0032Z" fill="#C9C8FF"/>
<path d="M21.3869 11.8887C21.5944 11.9632 21.8244 12.0012 22.0708 12.0012C23.6862 12.0012 25.7006 10.4403 26.2966 8.72593C26.9375 6.87955 25.9871 4.84969 24.1772 4.20123C23.8042 4.06774 23.4183 4.00024 23.0298 4.00024C21.5664 4.00024 20.2535 4.94768 19.7635 6.35759C19.089 8.29796 19.7185 11.2913 21.3869 11.8887Z" fill="#C9C8FF"/>
<path d="M24.8467 2.31685C23.0043 1.65939 20.9779 2.05336 19.496 3.32778V4.76818C20.327 3.67576 21.6234 3.0003 23.0293 3.0003C23.5333 3.0003 24.0327 3.0878 24.5137 3.26028C26.8375 4.09273 28.0615 6.69206 27.2405 9.0544C26.4971 11.1938 24.1287 13.0016 22.0704 13.0016C21.7079 13.0016 21.3644 12.9441 21.0489 12.8306C20.4135 12.6032 19.8975 12.1532 19.496 11.5767V12.8831C19.496 13.6551 19.1196 14.3585 18.4961 14.786V19.0012H19.9475L21.7354 13.9936L22.0864 13.9921C24.5667 13.9816 27.3015 11.9162 28.1829 9.38738C29.1874 6.50507 27.6905 3.33328 24.8467 2.31685Z" fill="#C9C8FF"/>
</g>
</svg>
