<svg width="219" height="60" viewBox="0 0 219 60" fill="none" xmlns="http://www.w3.org/2000/svg">
<g clip-path="url(#clip0_175_4971)">
<path fill-rule="evenodd" clip-rule="evenodd" d="M30.2591 22.5935L29.1375 23.7924L28.0081 22.5935C25.5327 19.9608 21.4203 19.7453 18.6853 22.0999C15.8873 24.5054 15.5567 28.6778 17.8589 31.569C21.1488 35.7022 24.9228 39.7806 29.1375 42.9892C33.4545 39.7022 37.3111 35.4985 40.6601 31.2595C42.8363 28.5093 42.3877 24.5171 39.7353 22.2292L39.6093 22.1234C36.8468 19.7453 32.7344 19.9608 30.2591 22.5935Z" fill="#43C6BC"/>
<path fill-rule="evenodd" clip-rule="evenodd" d="M46.7087 0.783569C53.5128 0.783569 59.0301 6.27622 59.0301 13.05V21.0382H51.5806V13.05C51.5806 10.3703 49.4004 8.19983 46.7087 8.19983H38.6846V0.783569H46.7087Z" fill="#4A46FF"/>
<path fill-rule="evenodd" clip-rule="evenodd" d="M59.0301 47.283C59.0301 54.0568 53.5128 59.5495 46.7087 59.5495H38.6846V52.1332H46.7087C49.4004 52.1332 51.5806 49.9628 51.5806 47.283V39.2948H59.0301V47.283Z" fill="#4A46FF"/>
<path fill-rule="evenodd" clip-rule="evenodd" d="M12.3215 0.783569C5.5173 0.783569 0 6.27622 0 13.05V21.0382H7.44954V13.05C7.44954 10.3703 9.6297 8.19983 12.3215 8.19983H20.3456V0.783569H12.3215Z" fill="#4A46FF"/>
<path fill-rule="evenodd" clip-rule="evenodd" d="M0 47.283C0 54.0568 5.5173 59.5495 12.3215 59.5495H20.3456V52.1332H12.3215C9.6297 52.1332 7.44954 49.9628 7.44954 47.283V39.2948H0V47.283Z" fill="#4A46FF"/>
<path fill-rule="evenodd" clip-rule="evenodd" d="M87.3989 60L93.3963 47.0637L108.185 15.2948H100.008L91.2476 35.6043L82.9245 15.2948H74.7705L87.1116 43.8629L79.2056 59.9961H87.3989V60ZM118.704 45.7395H118.712C121.113 47.189 123.781 47.906 126.705 47.906C129.168 47.906 131.376 47.4163 133.304 46.4094H133.312C134.343 45.857 135.264 45.1988 136.075 44.431V47.2674H143.434V15.2948H136.075V18.19C135.24 17.4143 134.296 16.7561 133.245 16.2194C131.317 15.1694 129.129 14.6562 126.705 14.6562C123.738 14.6562 121.042 15.3967 118.637 16.8854H118.633C116.288 18.3702 114.419 20.3683 113.03 22.8678V22.8756C111.672 25.3908 111.007 28.2076 111.007 31.3105C111.007 34.4133 111.676 37.2302 113.03 39.7453V39.7532C114.423 42.2566 116.316 44.2547 118.704 45.7356V45.7395ZM136.464 31.3144C136.464 34.1822 135.638 36.4819 134.032 38.2762C132.439 40.0118 130.345 40.8972 127.673 40.8972C125.871 40.8972 124.3 40.4819 122.935 39.6631C121.557 38.8404 120.479 37.7277 119.688 36.3173C118.944 34.8678 118.559 33.1832 118.559 31.2478C118.559 29.3124 118.944 27.7101 119.688 26.3036C120.483 24.8423 121.546 23.7101 122.876 22.8913C124.241 22.0764 125.808 21.6611 127.606 21.6611C129.404 21.6611 130.955 22.0764 132.273 22.8874H132.281L132.289 22.8952C133.603 23.667 134.615 24.764 135.323 26.2096V26.2214L135.335 26.2331C136.075 27.6357 136.464 29.3203 136.464 31.3066V31.3144ZM153.567 0V47.2635H160.926V0H153.567ZM171.032 0V47.2635H178.391V0H171.032ZM194.266 45.7356H194.278C196.679 47.1851 199.347 47.9021 202.271 47.9021C204.734 47.9021 206.942 47.4123 208.87 46.4055H208.874C209.909 45.8531 210.83 45.1949 211.641 44.427V47.2635H219V15.2948H211.641V18.19C210.806 17.4143 209.862 16.7561 208.807 16.2194C206.883 15.1694 204.695 14.6562 202.271 14.6562C199.303 14.6562 196.608 15.3967 194.203 16.8854H194.195C191.854 18.3702 189.985 20.3683 188.595 22.8678H188.591V22.8756C187.238 25.3908 186.569 28.2076 186.569 31.3105C186.569 34.4133 187.238 37.2302 188.588 39.7453H188.591V39.7532C189.985 42.2566 191.877 44.2547 194.266 45.7356ZM194.121 31.2478C194.121 33.1871 194.502 34.8678 195.25 36.3173C196.041 37.7277 197.119 38.8404 198.497 39.6631C199.862 40.478 201.432 40.8972 203.235 40.8972C205.907 40.8972 208 40.0118 209.59 38.2762C211.2 36.478 212.026 34.1783 212.026 31.3144C212.026 29.3242 211.637 27.6435 210.893 26.2409V26.2292L210.881 26.2174C210.177 24.7718 209.165 23.6748 207.847 22.903H207.843L207.835 22.8952C206.517 22.0842 204.97 21.669 203.168 21.669C201.366 21.669 199.799 22.0842 198.434 22.8991C197.104 23.7179 196.041 24.8501 195.25 26.3115C194.502 27.7179 194.121 29.3595 194.121 31.2517V31.2478Z" fill="#4A46FF"/>
</g>
<defs>
<clipPath id="clip0_175_4971">
<rect width="219" height="60" fill="white"/>
</clipPath>
</defs>
</svg>
