<svg width="20" height="20" viewBox="0 0 20 20" fill="none" xmlns="http://www.w3.org/2000/svg">
<path d="M4.16667 4.16667H9.16667C9.625 4.16667 10 3.79167 10 3.33333C10 2.875 9.625 2.5 9.16667 2.5H4.16667C3.25 2.5 2.5 3.25 2.5 4.16667V15.8333C2.5 16.75 3.25 17.5 4.16667 17.5H9.16667C9.625 17.5 10 17.125 10 16.6667C10 16.2083 9.625 15.8333 9.16667 15.8333H4.16667V4.16667Z" fill="#8280BD"/>
<path d="M17.2083 9.70812L14.8833 7.38312C14.8254 7.32358 14.751 7.28269 14.6696 7.26568C14.5883 7.24867 14.5037 7.25631 14.4268 7.28763C14.3498 7.31896 14.284 7.37253 14.2376 7.4415C14.1913 7.51047 14.1666 7.5917 14.1667 7.67479V9.16646H8.33333C7.875 9.16646 7.5 9.54146 7.5 9.99979C7.5 10.4581 7.875 10.8331 8.33333 10.8331H14.1667V12.3248C14.1667 12.6998 14.6167 12.8831 14.875 12.6165L17.2 10.2915C17.3667 10.1331 17.3667 9.86646 17.2083 9.70812Z" fill="#8280BD"/>
</svg>
