<svg width="30" height="30" viewBox="0 0 30 30" fill="none" xmlns="http://www.w3.org/2000/svg">
<path fill-rule="evenodd" clip-rule="evenodd" d="M15.3781 11.1344L14.8081 11.7464L14.2341 11.1344C12.9761 9.7904 10.8861 9.6804 9.49611 10.8824C8.07411 12.1104 7.90611 14.2404 9.07611 15.7164C10.7481 17.8264 12.6661 19.9084 14.8081 21.5464C17.0021 19.8684 18.9621 17.7224 20.6642 15.5584C21.7702 14.1544 21.5422 12.1164 20.1941 10.9484L20.1301 10.8944C18.7261 9.6804 16.6361 9.7904 15.3781 11.1344Z" fill="#43C6BC"/>
<path fill-rule="evenodd" clip-rule="evenodd" d="M23.7379 0C27.1959 0 29.9999 2.804 29.9999 6.262V10.34H26.2139V6.262C26.2139 4.894 25.1059 3.786 23.7379 3.786H19.6599V0H23.7379Z" fill="#4A46FF"/>
<path fill-rule="evenodd" clip-rule="evenodd" d="M29.9999 23.7382C29.9999 27.1962 27.1959 30.0002 23.7379 30.0002H19.6599V26.2142H23.7379C25.1059 26.2142 26.2139 25.1062 26.2139 23.7382V19.6602H29.9999V23.7382Z" fill="#4A46FF"/>
<path fill-rule="evenodd" clip-rule="evenodd" d="M6.26202 0C2.80401 0 0 2.804 0 6.262V10.34H3.78601V6.262C3.78601 4.894 4.89402 3.786 6.26202 3.786H10.34V0H6.26202Z" fill="#4A46FF"/>
<path fill-rule="evenodd" clip-rule="evenodd" d="M0 23.7382C0 27.1962 2.80401 30.0002 6.26202 30.0002H10.34V26.2142H6.26202C4.89402 26.2142 3.78601 25.1062 3.78601 23.7382V19.6602H0V23.7382Z" fill="#4A46FF"/>
</svg>
