<svg width="20" height="20" viewBox="0 0 20 20" fill="none" xmlns="http://www.w3.org/2000/svg">
<path d="M10 0C6.00606 0 2.75676 3.2493 2.75676 7.2432C2.75676 12.1998 9.23875 19.4763 9.51473 19.7836C9.77395 20.0723 10.2265 20.0718 10.4853 19.7836C10.7613 19.4763 17.2432 12.1998 17.2432 7.2432C17.2432 3.2493 13.9939 0 10 0ZM10 10.8875C7.99055 10.8875 6.35578 9.25266 6.35578 7.2432C6.35578 5.23375 7.99059 3.59898 10 3.59898C12.0094 3.59898 13.6442 5.23379 13.6442 7.24324C13.6442 9.2527 12.0094 10.8875 10 10.8875Z" fill="#43C6BC"/>
</svg>
