<svg width="24" height="24" viewBox="0 0 24 24" fill="none" xmlns="http://www.w3.org/2000/svg">
<g clip-path="url(#clip0_660_12234)">
<path d="M6 4.8001C6 4.13738 6.53728 3.6001 7.2 3.6001H22.8C23.4627 3.6001 24 4.13738 24 4.8001C24 5.46282 23.4627 6.0001 22.8 6.0001H7.2C6.53728 6.0001 6 5.46277 6 4.8001ZM22.8 10.8001H1.2C0.537281 10.8001 0 11.3374 0 12.0001C0 12.6628 0.537281 13.2001 1.2 13.2001H22.8C23.4627 13.2001 24 12.6628 24 12.0001C24 11.3374 23.4627 10.8001 22.8 10.8001ZM22.8 18.0001H12C11.3373 18.0001 10.8 18.5374 10.8 19.2001C10.8 19.8628 11.3373 20.4001 12 20.4001H22.8C23.4627 20.4001 24 19.8628 24 19.2001C24 18.5374 23.4627 18.0001 22.8 18.0001Z" fill="#C9C8FF"/>
</g>
<defs>
<clipPath id="clip0_660_12234">
<rect width="24" height="24" fill="white"/>
</clipPath>
</defs>
</svg>
