<svg width="30" height="30" viewBox="0 0 30 30" fill="none" xmlns="http://www.w3.org/2000/svg">
<g opacity="0.3" clip-path="url(#clip0_175_5014)">
<path d="M3.51562 26.4844H30V30H3.51562V26.4844Z" fill="#43C6BC"/>
<path d="M17.6115 24.7266C19.7597 23.1168 21.1523 20.551 21.1523 17.666V14.0625H13.2129V12.3047H14.9707V10.5469H9.69727V12.3047H11.4551V14.0625H0V19.156C0 21.2584 1.71035 22.9688 3.81275 22.9688H5.29277C5.7951 23.6341 6.38918 24.2266 7.05645 24.7266H17.6115ZM3.81275 21.2109C2.67967 21.2109 1.75781 20.2891 1.75781 19.156V15.8203H3.51562V17.666C3.51562 18.9264 3.78193 20.1255 4.26041 21.2109H3.81275Z" fill="#43C6BC"/>
<path d="M30 24.7266V4.39453C30 1.97139 28.0286 0 25.6055 0H9.66797C7.5457 0 5.7702 1.51219 5.36186 3.51562H3.51562V5.27344H5.36186C5.77014 7.27688 7.5457 8.78906 9.66797 8.78906H23.7891V17.666C23.7891 20.2878 22.8288 22.7804 21.0785 24.7266H30ZM19.3945 5.27344V3.51562H21.1523V5.27344H19.3945ZM24.668 5.27344H22.9102V3.51562H24.668V5.27344Z" fill="#43C6BC"/>
</g>
<defs>
<clipPath id="clip0_175_5014">
<rect width="30" height="30" fill="white"/>
</clipPath>
</defs>
</svg>
