<svg width="20" height="20" viewBox="0 0 20 20" fill="none" xmlns="http://www.w3.org/2000/svg">
<g clip-path="url(#clip0_660_12139)">
<path d="M16.452 12.6484V8.84839C16.452 6.02581 14.6455 3.56453 12.1584 2.64519C12.1874 2.50001 12.2035 2.35165 12.2035 2.20324C12.2036 0.987117 11.2165 0 10.0004 0C8.78425 0 7.79713 0.987117 7.79713 2.20324C7.79713 2.34842 7.81324 2.49354 7.83904 2.63226C6.98423 2.93549 6.1939 3.41612 5.51972 4.06774C4.24876 5.29355 3.54877 6.94193 3.54877 8.70967V12.6484C3.54877 12.7871 3.43586 12.9033 3.29391 12.9033C2.10359 12.9033 1.08744 13.8 0.977761 14.942C0.916457 15.5775 1.12617 16.2097 1.5552 16.6807C1.98099 17.1484 2.59069 17.4194 3.22614 17.4194H7.11648C7.27777 18.8678 8.51005 20.0001 10.0004 20.0001C11.4907 20.0001 12.723 18.8678 12.8843 17.4194H16.7746C17.4101 17.4194 18.0197 17.1484 18.4455 16.6807C18.8713 16.2097 19.081 15.5775 19.023 14.942C18.9133 13.8 17.894 12.9033 16.7068 12.9033C16.5649 12.9032 16.452 12.7903 16.452 12.6484ZM10.0004 1.2903C10.5036 1.2903 10.9133 1.69998 10.9133 2.20318C10.9133 2.24509 10.9068 2.28383 10.9003 2.32574C10.681 2.29347 10.4584 2.2709 10.2358 2.26443C9.8519 2.2515 9.47449 2.27736 9.1003 2.32897C9.09384 2.28706 9.08738 2.24833 9.08738 2.20641C9.08748 1.69998 9.49717 1.2903 10.0004 1.2903ZM10.0004 18.7096C9.22297 18.7096 8.57135 18.1548 8.41971 17.4193H11.581C11.4294 18.1548 10.7778 18.7096 10.0004 18.7096ZM17.7391 15.0645C17.7649 15.342 17.6778 15.6097 17.4939 15.8129C17.3036 16.0161 17.052 16.129 16.7746 16.129H3.22619C2.94876 16.129 2.69719 16.0161 2.51004 15.8129C2.32295 15.6097 2.23585 15.3419 2.26165 15.0645C2.30679 14.5774 2.76167 14.1935 3.29391 14.1935C4.14554 14.1935 4.83907 13.5 4.83907 12.6484V8.70967C4.83907 7.29677 5.40034 5.97743 6.41649 4.99678C7.38745 4.05809 8.652 3.54837 10.0004 3.54837C10.0649 3.54837 10.1262 3.54837 10.1907 3.55161C12.9294 3.64836 15.1617 6.02581 15.1617 8.84839V12.6484C15.1617 13.5 15.8552 14.1935 16.7068 14.1935C17.2391 14.1935 17.6907 14.5774 17.7391 15.0645Z" fill="#43C6BC"/>
</g>
<defs>
<clipPath id="clip0_660_12139">
<rect width="20" height="20" fill="white"/>
</clipPath>
</defs>
</svg>
