<svg width="24" height="24" viewBox="0 0 24 24" fill="none" xmlns="http://www.w3.org/2000/svg">
<rect width="24" height="24" rx="4" fill="#0E4DA4"/>
<rect width="24" height="24" rx="4" fill="#ECECFF"/>
<path d="M17.6468 12.7832C18.0401 12.7832 18.3589 12.4644 18.3589 12.0711C18.3589 11.6778 18.0401 11.3589 17.6468 11.3589L12.7122 11.3589L12.7122 6.42431C12.7122 6.031 12.3933 5.71216 12 5.71216C11.6067 5.71216 11.2878 6.031 11.2878 6.42432L11.2878 11.3589L6.35325 11.3589C5.95993 11.3589 5.64109 11.6778 5.64109 12.0711C5.64109 12.4644 5.95993 12.7832 6.35325 12.7832L11.2878 12.7832L11.2878 17.7178C11.2878 18.1111 11.6067 18.43 12 18.43C12.3933 18.43 12.7122 18.1111 12.7122 17.7178L12.7122 12.7832L17.6468 12.7832Z" fill="#4A46FF"/>
</svg>
