<svg width="14" height="14" viewBox="0 0 14 14" fill="none" xmlns="http://www.w3.org/2000/svg">
<path d="M11.082 6.41634H7.58203V2.91634C7.58203 2.76163 7.52057 2.61326 7.41118 2.50386C7.30178 2.39447 7.15341 2.33301 6.9987 2.33301C6.84399 2.33301 6.69562 2.39447 6.58622 2.50386C6.47682 2.61326 6.41536 2.76163 6.41536 2.91634V6.41634H2.91536C2.76065 6.41634 2.61228 6.4778 2.50289 6.5872C2.39349 6.69659 2.33203 6.84496 2.33203 6.99967C2.33203 7.15438 2.39349 7.30276 2.50289 7.41215C2.61228 7.52155 2.76065 7.58301 2.91536 7.58301H6.41536V11.083C6.41536 11.2377 6.47682 11.3861 6.58622 11.4955C6.69562 11.6049 6.84399 11.6663 6.9987 11.6663C7.15341 11.6663 7.30178 11.6049 7.41118 11.4955C7.52057 11.3861 7.58203 11.2377 7.58203 11.083V7.58301H11.082C11.2367 7.58301 11.3851 7.52155 11.4945 7.41215C11.6039 7.30276 11.6654 7.15438 11.6654 6.99967C11.6654 6.84496 11.6039 6.69659 11.4945 6.5872C11.3851 6.4778 11.2367 6.41634 11.082 6.41634Z" fill="#4A46FF"/>
</svg>
