<svg width="30" height="30" viewBox="0 0 30 30" fill="none" xmlns="http://www.w3.org/2000/svg">
<g opacity="0.3">
<path d="M6.75098 10.1219V22.7088C6.75149 23.1379 6.92219 23.5494 7.22564 23.8528C7.5291 24.1563 7.94053 24.327 8.36969 24.3275H21.6303C22.0595 24.327 22.471 24.1563 22.7744 23.8528C23.0779 23.5494 23.2486 23.1379 23.2491 22.7088V10.1219C22.8097 10.1243 7.30142 10.123 6.75098 10.1219ZM10.0279 15.3675C10.0264 15.4825 9.97959 15.5924 9.89771 15.6732C9.81582 15.754 9.7054 15.7993 9.59034 15.7993C9.47529 15.7993 9.36487 15.754 9.28299 15.6731C9.20111 15.5923 9.15435 15.4825 9.15285 15.3675V12.3794C9.15461 12.2645 9.20149 12.1549 9.28334 12.0743C9.3652 11.9937 9.47547 11.9485 9.59036 11.9485C9.70524 11.9485 9.81552 11.9937 9.89738 12.0743C9.97923 12.1549 10.0261 12.2645 10.0279 12.3794V15.3675ZM16.5904 11.6488C16.5921 11.5339 16.639 11.4243 16.7209 11.3437C16.8027 11.2631 16.913 11.2179 17.0279 11.2179C17.1427 11.2179 17.253 11.2631 17.3349 11.3437C17.4167 11.4243 17.4636 11.5339 17.4654 11.6488V12.865L18.2397 12.305C18.3344 12.2398 18.4509 12.2144 18.5641 12.2343C18.6773 12.2542 18.7781 12.3179 18.8448 12.4116C18.9114 12.5052 18.9386 12.6214 18.9203 12.7349C18.9021 12.8483 18.8399 12.9501 18.7472 13.0181L17.4654 13.9413V14.93H18.4629L19.3772 13.6525C19.4449 13.5589 19.5468 13.4959 19.6608 13.4771C19.7748 13.4583 19.8915 13.4854 19.9856 13.5524C20.0797 13.6193 20.1435 13.7208 20.1632 13.8346C20.1828 13.9484 20.1566 14.0654 20.0903 14.16L19.5391 14.93H20.7466C20.8615 14.9317 20.9712 14.9785 21.0518 15.0604C21.1325 15.1423 21.1777 15.2526 21.1777 15.3675C21.1777 15.4824 21.1325 15.5928 21.0518 15.6746C20.9712 15.7565 20.8615 15.8033 20.7466 15.805H19.5347L20.0903 16.5794C20.1548 16.6735 20.18 16.7891 20.1604 16.9015C20.1409 17.0139 20.0782 17.1143 19.9857 17.1811C19.8932 17.2479 19.7782 17.2759 19.6653 17.2591C19.5525 17.2423 19.4506 17.182 19.3816 17.0912L18.4585 15.805H17.4654V16.7981L18.7472 17.7213C18.8398 17.7891 18.9019 17.8907 18.92 18.0041C18.9382 18.1174 18.9108 18.2333 18.844 18.3267C18.7772 18.42 18.6762 18.4832 18.5631 18.5025C18.4499 18.5219 18.3337 18.4958 18.2397 18.43L17.4654 17.8744V19.0862C17.4638 19.2012 17.417 19.3109 17.3351 19.3917C17.2532 19.4724 17.1428 19.5177 17.0278 19.5177C16.9129 19.5177 16.8025 19.4724 16.7206 19.3917C16.6388 19.3109 16.592 19.2012 16.5904 19.0862V17.8831C16.3741 18.0106 15.7716 18.552 15.5622 18.5131C15.4706 18.5113 15.3819 18.4809 15.3084 18.4261C15.235 18.3714 15.1805 18.295 15.1525 18.2078C15.1246 18.1206 15.1246 18.0268 15.1525 17.9395C15.1805 17.8523 15.235 17.776 15.3085 17.7213L16.5904 16.8025V15.805H15.6016L14.6785 17.0913C14.6369 17.1471 14.5827 17.1925 14.5204 17.2236C14.4581 17.2548 14.3894 17.2709 14.3197 17.2706C14.2399 17.2694 14.162 17.2464 14.0942 17.2043C14.0265 17.1621 13.9715 17.1024 13.9351 17.0314C13.8987 16.9604 13.8823 16.8808 13.8876 16.8012C13.8929 16.7216 13.9198 16.6449 13.9654 16.5794L14.521 15.805H13.3091C13.1931 15.805 13.0818 15.7589 12.9998 15.6769C12.9177 15.5948 12.8716 15.4835 12.8716 15.3675C12.8716 15.2515 12.9177 15.1402 12.9998 15.0582C13.0818 14.9761 13.1931 14.93 13.3091 14.93H14.5166L13.9654 14.16C13.8995 14.0654 13.8736 13.9486 13.8934 13.835C13.9131 13.7214 13.9769 13.6202 14.0708 13.5534C14.1647 13.4866 14.2812 13.4595 14.395 13.478C14.5088 13.4966 14.6107 13.5593 14.6785 13.6525L15.5928 14.93H16.5903V13.9369L15.3085 13.0181C15.2171 12.9491 15.1563 12.847 15.1391 12.7337C15.1219 12.6204 15.1497 12.5049 15.2165 12.4118C15.2833 12.3187 15.3838 12.2555 15.4967 12.2355C15.6095 12.2156 15.7257 12.2405 15.8204 12.305L16.5903 12.8563L16.5904 11.6488Z" fill="#94EDFF"/>
<path d="M21.6303 1.875H8.36971C7.94055 1.87551 7.52911 2.04622 7.22565 2.34968C6.92219 2.65315 6.75149 3.06458 6.75098 3.49374V9.24685C7.19035 9.24565 22.6987 9.24628 23.2491 9.24685V3.49374C23.2486 3.06458 23.0778 2.65315 22.7744 2.34969C22.4709 2.04623 22.0595 1.87552 21.6303 1.875ZM10.0279 7.58438C10.0261 7.69925 9.97923 7.80881 9.89737 7.88942C9.81551 7.97003 9.70523 8.01521 9.59035 8.0152C9.47546 8.0152 9.36519 7.97001 9.28333 7.8894C9.20148 7.80879 9.15461 7.69922 9.15285 7.58435V4.59187C9.15461 4.477 9.20149 4.36744 9.28334 4.28683C9.3652 4.20622 9.47547 4.16103 9.59036 4.16103C9.70524 4.16103 9.81552 4.20622 9.89738 4.28683C9.97923 4.36744 10.0261 4.477 10.0279 4.59187V7.58438Z" fill="#94EDFF"/>
<path d="M11.3231 25.2025H8.86875C8.80603 25.2035 8.74422 25.2177 8.6874 25.2443C8.63058 25.2709 8.58004 25.3092 8.53911 25.3567C8.49818 25.4043 8.4678 25.4599 8.44996 25.5201C8.43212 25.5802 8.42724 25.6435 8.43563 25.7056L8.75063 27.7531C8.76572 27.857 8.81791 27.9519 8.89753 28.0202C8.97715 28.0886 9.07883 28.1258 9.18377 28.125H11.0125C11.1171 28.1244 11.218 28.0867 11.2974 28.0186C11.3767 27.9505 11.4292 27.8564 11.4456 27.7531L11.7563 25.7056C11.7649 25.6434 11.7602 25.5801 11.7425 25.5198C11.7247 25.4596 11.6943 25.4038 11.6534 25.3562C11.6124 25.3086 11.5617 25.2703 11.5048 25.2438C11.4479 25.2173 11.3859 25.2032 11.3231 25.2025Z" fill="#94EDFF"/>
<path d="M21.1272 25.2025H18.6728C18.61 25.2031 18.548 25.2172 18.491 25.2436C18.434 25.2701 18.3833 25.3084 18.3423 25.356C18.3014 25.4037 18.271 25.4595 18.2533 25.5198C18.2356 25.58 18.2309 25.6434 18.2396 25.7056L18.5546 27.7531C18.5697 27.857 18.6219 27.9519 18.7015 28.0202C18.7811 28.0886 18.8828 28.1258 18.9878 28.125H20.8165C20.9207 28.125 21.0215 28.0874 21.1003 28.0191C21.179 27.9508 21.2305 27.8563 21.2453 27.7531L21.5602 25.7056C21.569 25.6434 21.5645 25.58 21.5468 25.5197C21.5291 25.4594 21.4987 25.4035 21.4577 25.3559C21.4167 25.3083 21.366 25.2699 21.309 25.2435C21.252 25.217 21.19 25.2031 21.1272 25.2025Z" fill="#94EDFF"/>
</g>
</svg>
