<svg width="30" height="30" viewBox="0 0 30 30" fill="none" xmlns="http://www.w3.org/2000/svg">
<g opacity="0.3" clip-path="url(#clip0_175_5051)">
<path d="M20.6061 0H9.39359L7.96484 2.14286H22.0348L20.6061 0Z" fill="#C9C8FF"/>
<path d="M9.01964 29.5087C9.04443 29.7851 9.27473 29.9975 9.55214 30H20.4486C20.7259 29.9978 20.9563 29.7855 20.9811 29.5093L21.2195 26.7857H8.78125L9.01964 29.5087Z" fill="#C9C8FF"/>
<path d="M22.7064 9.64287L22.9876 6.42859H7.01367L7.29492 9.64287H22.7064Z" fill="#C9C8FF"/>
<path d="M5.35742 3.21429H24.6431V5.35715H5.35742V3.21429Z" fill="#C9C8FF"/>
<path d="M7.72675 25.7143H22.2735L23.5716 10.7143H6.42871L7.72675 25.7143ZM18.0575 21.8073L17.9005 21.9643H19.9694L18.2851 19.0179C18.1468 18.7619 18.238 18.4424 18.4906 18.298C18.7432 18.1537 19.0649 18.2373 19.2151 18.4864L20.9005 21.4329C21.09 21.7646 21.0885 22.1721 20.8966 22.5025C20.7047 22.8328 20.3515 23.036 19.9694 23.0357H17.9005L18.0575 23.1927C18.1967 23.3272 18.2526 23.5264 18.2035 23.7137C18.1545 23.901 18.0082 24.0472 17.8209 24.0963C17.6336 24.1453 17.4345 24.0894 17.3 23.9502L16.2285 22.8788C16.0194 22.6696 16.0194 22.3305 16.2285 22.1213L17.3 21.0498C17.5102 20.8468 17.8443 20.8497 18.0509 21.0564C18.2576 21.263 18.2605 21.5971 18.0575 21.8073ZM12.3923 15.8036L14.0701 12.8673C14.261 12.5338 14.6158 12.3279 15.0001 12.3279C15.3844 12.3279 15.7393 12.5338 15.9301 12.8673L16.8682 14.5093L16.8725 14.4852C16.9228 14.1936 17.1999 13.998 17.4915 14.0483C17.7831 14.0986 17.9787 14.3758 17.9284 14.6673L17.6707 16.1604C17.6203 16.4517 17.3433 16.6471 17.0519 16.597L15.5589 16.3398C15.2673 16.2895 15.0717 16.0124 15.122 15.7208C15.1723 15.4292 15.4495 15.2336 15.741 15.2839L16.116 15.3482L15.0001 13.4014L13.3223 16.3393C13.172 16.5884 12.8504 16.672 12.5978 16.5277C12.3452 16.3834 12.254 16.0638 12.3923 15.8079V15.8036ZM9.09978 21.4286L10.1675 19.5611L9.90496 19.6254C9.61738 19.6955 9.3274 19.5192 9.25728 19.2316C9.18716 18.944 9.36345 18.6541 9.65103 18.5839L11.1232 18.225C11.2613 18.1913 11.4071 18.2138 11.5286 18.2877C11.6501 18.3615 11.7372 18.4806 11.7709 18.6188L12.1298 20.0909C12.1635 20.229 12.141 20.3749 12.0671 20.4963C11.9933 20.6178 11.8742 20.705 11.736 20.7386C11.6943 20.7485 11.6515 20.7536 11.6085 20.7536C11.3617 20.7535 11.1469 20.5847 11.0884 20.3448L11.0482 20.1788L10.0303 21.9643H12.8573C13.1531 21.9643 13.393 22.2041 13.393 22.5C13.393 22.7959 13.1531 23.0357 12.8573 23.0357H10.0309C9.64882 23.036 9.29555 22.8328 9.10366 22.5025C8.91177 22.1721 8.91029 21.7646 9.09978 21.4329V21.4286Z" fill="#C9C8FF"/>
</g>
<defs>
<clipPath id="clip0_175_5051">
<rect width="30" height="30" fill="white"/>
</clipPath>
</defs>
</svg>
