<svg width="20" height="20" viewBox="0 0 20 20" fill="none" xmlns="http://www.w3.org/2000/svg">
<path d="M18.5669 17.6831L14.03 13.1461C15.0247 11.9534 15.625 10.4209 15.625 8.75C15.625 4.95906 12.5409 1.875 8.75 1.875C4.95906 1.875 1.875 4.95906 1.875 8.75C1.875 12.5409 4.95906 15.625 8.75 15.625C10.4209 15.625 11.9534 15.0247 13.1461 14.03L17.6831 18.567C17.8052 18.6891 17.9652 18.7502 18.125 18.7502C18.2848 18.7502 18.4448 18.6891 18.5669 18.567C18.8111 18.3228 18.8111 17.9272 18.5669 17.6831ZM3.125 8.75C3.125 5.64844 5.64813 3.125 8.75 3.125C11.8519 3.125 14.375 5.64844 14.375 8.75C14.375 11.8516 11.8519 14.375 8.75 14.375C5.64813 14.375 3.125 11.8516 3.125 8.75Z" fill="#43C6BC"/>
</svg>
