<svg width="20" height="20" viewBox="0 0 20 20" fill="none" xmlns="http://www.w3.org/2000/svg">
<path d="M6.01415 9.0894C5.81237 8.72633 5.49574 8.44054 5.11396 8.27689C4.73218 8.11324 4.30686 8.08099 3.90478 8.18522C3.50269 8.28944 3.14659 8.52423 2.89238 8.85274C2.63817 9.18124 2.50024 9.58486 2.50024 10.0002C2.50024 10.4156 2.63817 10.8192 2.89238 11.1477C3.14659 11.4762 3.50269 11.711 3.90478 11.8153C4.30686 11.9195 4.73218 11.8872 5.11396 11.7236C5.49574 11.5599 5.81237 11.2741 6.01415 10.9111M6.01415 9.0894C6.16415 9.3594 6.24998 9.6694 6.24998 10.0002C6.24998 10.3311 6.16415 10.6419 6.01415 10.9111M6.01415 9.0894L13.9858 4.66107M6.01415 10.9111L13.9858 15.3394M13.9858 4.66107C14.1027 4.88118 14.2623 5.07579 14.4552 5.23351C14.6482 5.39123 14.8707 5.5089 15.1097 5.57963C15.3486 5.65037 15.5993 5.67275 15.847 5.64548C16.0948 5.61821 16.3346 5.54182 16.5524 5.42079C16.7703 5.29975 16.9618 5.1365 17.1159 4.94058C17.2699 4.74466 17.3833 4.51999 17.4495 4.27972C17.5157 4.03945 17.5333 3.78839 17.5013 3.54123C17.4694 3.29407 17.3885 3.05576 17.2633 2.84024C17.0167 2.41552 16.6133 2.10452 16.1398 1.97408C15.6663 1.84364 15.1606 1.90419 14.7313 2.1427C14.3019 2.38121 13.9833 2.77864 13.8439 3.24956C13.7046 3.72049 13.7555 4.2273 13.9858 4.66107ZM13.9858 15.3394C13.8662 15.5547 13.7902 15.7915 13.7621 16.0362C13.7339 16.2809 13.7543 16.5287 13.822 16.7655C13.8897 17.0024 14.0033 17.2235 14.1565 17.4165C14.3096 17.6094 14.4993 17.7702 14.7146 17.8898C14.9299 18.0094 15.1666 18.0855 15.4113 18.1136C15.656 18.1417 15.9039 18.1213 16.1407 18.0537C16.3775 17.986 16.5987 17.8723 16.7916 17.7192C16.9845 17.566 17.1454 17.3764 17.265 17.1611C17.5065 16.7262 17.5655 16.2132 17.4288 15.7349C17.2921 15.2566 16.9711 14.8522 16.5362 14.6107C16.1014 14.3691 15.5884 14.3102 15.1101 14.4468C14.6318 14.5835 14.2274 14.9046 13.9858 15.3394Z" stroke="#8280BD" stroke-width="1.5" stroke-linecap="round" stroke-linejoin="round"/>
</svg>
