<svg width="24" height="24" viewBox="0 0 24 24" fill="none" xmlns="http://www.w3.org/2000/svg">
<path fill-rule="evenodd" clip-rule="evenodd" d="M3.46765 5.9998H6.38974V7.58652C6.38974 7.86308 6.61395 8.08729 6.89051 8.08729C7.16707 8.08729 7.39127 7.86308 7.39127 7.58652V5.9998H12.636V7.58652C12.636 7.86308 12.8602 8.08729 13.1368 8.08729C13.4134 8.08729 13.6376 7.86308 13.6376 7.58652V5.9998H16.5596C16.8843 5.9998 17.1532 6.24519 17.1829 6.56844L17.654 11.6935C17.4311 11.6704 17.205 11.6583 16.976 11.6583C13.3976 11.6583 10.4967 14.5592 10.4967 18.1377C10.4967 19.0178 10.6725 19.8568 10.9904 20.6218H2.89629C2.53906 20.6218 2.23151 20.4861 1.99076 20.2221C1.74996 19.9582 1.64299 19.6396 1.67566 19.2838L2.84435 6.56844C2.87407 6.24519 3.14299 5.9998 3.46765 5.9998ZM6.38974 5.91735V4.13216C6.38974 3.13508 6.79727 2.22899 7.45385 1.57241C8.11043 0.915832 9.01652 0.508301 10.0136 0.508301C11.0107 0.508301 11.9168 0.915832 12.5734 1.57241C13.2299 2.22899 13.6375 3.13513 13.6375 4.13216V5.91735H12.636V4.13216C12.636 3.41155 12.3408 2.756 11.8653 2.2805C11.3897 1.80496 10.7343 1.50979 10.0136 1.50979C9.29299 1.50979 8.63749 1.80496 8.16195 2.2805C7.6864 2.756 7.39123 3.4115 7.39123 4.13216V5.91735H6.38974ZM16.976 12.7833C14.0189 12.7833 11.6216 15.1806 11.6216 18.1377C11.6216 21.0948 14.0189 23.492 16.976 23.492C19.9331 23.492 22.3303 21.0948 22.3303 18.1377C22.3303 15.1806 19.9331 12.7833 16.976 12.7833ZM14.3588 18.4546L15.9607 19.9258C16.1852 20.1323 16.5326 20.1214 16.7437 19.9037L19.6021 17.1669C19.8253 16.9521 19.8322 16.597 19.6174 16.3737C19.4027 16.1504 19.0475 16.1436 18.8242 16.3583L16.3331 18.7435L15.119 17.6285C14.8909 17.4186 14.5357 17.4334 14.3258 17.6615C14.1159 17.8896 14.1306 18.2447 14.3588 18.4546Z" fill="#C9C8FF"/>
</svg>
