<svg width="20" height="20" viewBox="0 0 20 20" fill="none" xmlns="http://www.w3.org/2000/svg">
<g clip-path="url(#clip0_660_12957)">
<path d="M9.413 9.41253V5.85156H5.713C5.51304 6.90217 5.38934 8.0902 5.36238 9.41253H9.413Z" fill="#43C6BC"/>
<path d="M9.413 4.67846V0.0341797C8.03914 0.376894 6.72604 1.94689 5.9827 4.67846H9.413Z" fill="#43C6BC"/>
<path d="M4.1895 10.5869H0C0.0713368 11.8171 0.366193 13.0065 0.865511 14.1088H4.52126C4.32892 13.0244 4.21709 11.845 4.1895 10.5869Z" fill="#43C6BC"/>
<path d="M0 9.41253H4.18828C4.21309 8.13958 4.32423 6.94666 4.51848 5.85156H0.883511C0.373393 6.96478 0.0721585 8.16783 0 9.41253Z" fill="#43C6BC"/>
<path d="M10.587 0.0390625V4.67846H14.0071C13.7258 3.65564 13.3889 2.88608 13.078 2.32415C12.3829 1.06791 11.5148 0.277686 10.587 0.0390625Z" fill="#43C6BC"/>
<path d="M9.41301 10.5869H5.36368C5.39447 11.9561 5.52549 13.122 5.71301 14.1088H9.41305L9.41301 10.5869Z" fill="#43C6BC"/>
<path d="M14.1052 1.75536C14.5687 2.59305 14.9415 3.57485 15.2197 4.67801H18.4803C18.0835 4.05101 17.614 3.4629 17.0755 2.92445C15.9844 1.83335 14.6896 1.02485 13.2795 0.53418C13.5766 0.89145 13.8527 1.29897 14.1052 1.75536Z" fill="#43C6BC"/>
<path d="M14.6364 9.41253C14.6052 8.02508 14.471 6.84668 14.2794 5.85156H10.587V9.41253H14.6364Z" fill="#43C6BC"/>
<path d="M15.2416 15.2832C14.9629 16.41 14.5856 17.4113 14.1136 18.2626C13.8669 18.7078 13.5975 19.106 13.3078 19.4564C14.7069 18.9647 15.9917 18.1597 17.0755 17.0759C17.625 16.5263 18.1026 15.9248 18.5044 15.2832H15.2416Z" fill="#43C6BC"/>
<path d="M4.76826 4.67807C5.04601 3.56729 5.41999 2.57941 5.8864 1.73793C6.1332 1.29269 6.40262 0.894368 6.69239 0.543945C5.29321 1.03555 4.00832 1.84065 2.9245 2.92447C2.38605 3.46292 1.91647 4.05103 1.51971 4.67803L4.76826 4.67807Z" fill="#43C6BC"/>
<path d="M15.4715 5.85156C15.6682 6.9467 15.7826 8.13923 15.8106 9.41253H20C19.9278 8.16783 19.6266 6.96478 19.1165 5.85156H15.4715Z" fill="#43C6BC"/>
<path d="M5.89486 18.2452C5.42587 17.3976 5.04985 16.4023 4.77069 15.2832H1.49557C1.89746 15.9248 2.37498 16.5263 2.92454 17.0759C4.01561 18.167 5.31043 18.9755 6.72053 19.4662C6.42337 19.1089 6.14733 18.7015 5.89486 18.2452Z" fill="#43C6BC"/>
<path d="M10.587 10.5869V14.1088H14.2945C14.4901 13.0678 14.6111 11.8929 14.6377 10.5869H10.587Z" fill="#43C6BC"/>
<path d="M20 10.5869H15.8118C15.7873 11.8448 15.6785 13.0244 15.4885 14.1088H19.1345C19.6338 13.0065 19.9287 11.8171 20 10.5869Z" fill="#43C6BC"/>
<path d="M10.587 15.2832V19.9667C11.9675 19.6223 13.2868 18.0392 14.0283 15.2832H10.587Z" fill="#43C6BC"/>
<path d="M9.413 19.9618V15.2832H5.98222C6.26569 16.3257 6.60719 17.1077 6.92205 17.6768C7.6171 18.933 8.48523 19.7231 9.413 19.9618Z" fill="#43C6BC"/>
</g>
<defs>
<clipPath id="clip0_660_12957">
<rect width="20" height="20" fill="white"/>
</clipPath>
</defs>
</svg>
